<?xml version="1.0" encoding="iso-8859-1"?>
<!-- Uploaded to: SVG Repo, www.svgrepo.com, Generator: SVG Repo Mixer Tools -->
<svg fill="#000000" height="800px" width="800px" version="1.1" id="Capa_1" xmlns="http://www.w3.org/2000/svg" xmlns:xlink="http://www.w3.org/1999/xlink" 
	 viewBox="0 0 490 490" xml:space="preserve">
<g>
	<g>
		<path d="M442.1,0.5H47.9C21.9,0.5,0,22.3,0,48.4v393.2c0,26,21.8,47.9,47.9,47.9h393.2c27,0,47.9-20.8,48.9-46.8V48.4
			C490,22.4,468.2,0.5,442.1,0.5z M449.4,442.7c0,4.2-3.1,7.3-7.3,7.3H47.9c-4.2,0-7.3-3.1-7.3-7.3V48.4c0-4.2,3.1-7.3,7.3-7.3
			h394.3c4.2,0,7.3,3.1,7.3,7.3v394.3H449.4z"/>
		<path d="M387,333.4c-11.4,0-20.8,9.4-20.8,20.8v10.4h-10.4c-11.4,0-20.8,9.4-20.8,20.8s9.4,20.8,20.8,20.8H386
			c11.4,0,19.8-8.3,21.8-21.8v-30.2C407.8,342.8,398.5,333.4,387,333.4z"/>
		<path d="M280.9,364.6H207c-11.4,0-20.8,9.4-20.8,20.8s9.4,20.8,20.8,20.8h73.9c11.4,0,20.8-8.3,20.8-20.8
			C301.7,374,292.3,364.6,280.9,364.6z"/>
		<path d="M135.2,365.7h-10.4v-10.4c0-11.4-9.4-20.8-20.8-20.8s-20.8,9.4-20.8,20.8v30.2c0,11.4,9.4,20.8,20.8,20.8h30.2
			c11.4,0,19.8-8.3,21.8-19.8C156.1,375,146.7,365.7,135.2,365.7z"/>
		<path d="M103,302.2c11.4,0,20.8-9.4,20.8-20.8v-73.9c0-11.4-9.4-20.8-20.8-20.8s-20.8,9.4-20.8,20.8v73.9
			C82.2,292.9,91.5,302.2,103,302.2z"/>
		<path d="M103,154.5c11.4,0,20.8-8.3,19.8-19.8v-10.4h10.4c11.4,0,20.8-9.4,20.8-20.8s-9.4-20.8-20.8-20.8H103
			c-11.4,0-20.8,9.4-20.8,20.8v30.2C82.2,145.1,91.5,154.5,103,154.5z"/>
		<path d="M280.9,82.7H207c-11.4,0-20.8,9.4-20.8,20.8s9.4,20.8,20.8,20.8h73.9c11.4,0,20.8-9.4,20.8-20.8S292.3,82.7,280.9,82.7z"
			/>
		<path d="M354.8,123.3h10.4v10.4c0,11.4,9.4,20.8,20.8,20.8s19.8-8.3,19.8-21.8v-30.2c0-11.4-9.4-20.8-20.8-20.8h-30.2
			c-11.4,0-20.8,9.4-20.8,20.8C333.9,113.9,343.3,123.3,354.8,123.3z"/>
		<path d="M386,186.7c-11.4,0-20.8,9.4-20.8,20.8v73.9c0,11.4,9.4,20.8,20.8,20.8s19.8-9.4,20.8-20.8v-73.9
			C406.8,196.1,397.4,186.7,386,186.7z"/>
	</g>
</g>
</svg>